<svg width="61" height="60" viewBox="0 0 61 60" fill="none" xmlns="http://www.w3.org/2000/svg">
<circle cx="30.5" cy="30" r="30" fill="white" fill-opacity="0.4"/>
<path d="M27.6875 19.6875V40.3125C27.6875 41.0584 27.3912 41.7738 26.8637 42.3012C26.3363 42.8287 25.6209 43.125 24.875 43.125H23.9375C23.1916 43.125 22.4762 42.8287 21.9488 42.3012C21.4213 41.7738 21.125 41.0584 21.125 40.3125V19.6875C21.125 18.9416 21.4213 18.2262 21.9488 17.6988C22.4762 17.1713 23.1916 16.875 23.9375 16.875H24.875C25.6209 16.875 26.3363 17.1713 26.8637 17.6988C27.3912 18.2262 27.6875 18.9416 27.6875 19.6875ZM37.0625 16.875H36.125C35.3791 16.875 34.6637 17.1713 34.1363 17.6988C33.6088 18.2262 33.3125 18.9416 33.3125 19.6875V40.3125C33.3125 41.0584 33.6088 41.7738 34.1363 42.3012C34.6637 42.8287 35.3791 43.125 36.125 43.125H37.0625C37.8084 43.125 38.5238 42.8287 39.0512 42.3012C39.5787 41.7738 39.875 41.0584 39.875 40.3125V19.6875C39.875 18.9416 39.5787 18.2262 39.0512 17.6988C38.5238 17.1713 37.8084 16.875 37.0625 16.875Z" fill="white"/>
</svg>
